<!DOCTYPE svg PUBLIC "-//W3C//DTD SVG 20010904//EN" "http://www.w3.org/TR/2001/REC-SVG-20010904/DTD/svg10.dtd">
<svg version="1.0" xmlns="http://www.w3.org/2000/svg" width="721px" height="346px" viewBox="0 0 7210 3460" preserveAspectRatio="xMidYMid meet">
<g id="layer101" fill="#bf3029" stroke="none">
 <path fill="#d14a33" d="M1320 2521 l0 -160 -42 -5 c-24 -3 -68 -7 -98 -10 -87 -9 -282 -80 -330 -121 -8 -7 -33 -23 -55 -35 -61 -34 -141 -106 -180 -163 -19 -29 -51 -74 -70 -102 -47 -66 -101 -198 -120 -292 -18 -86 -21 -251 -6 -329 23 -118 68 -223 145 -338 25 -38 46 -71 46 -73 0 -10 53 -69 74 -83 13 -8 60 -43 106 -78 130 -100 255 -147 420 -159 270 -20 465 32 638 171 45 36 86 66 91 66 11 0 71 74 103 129 129 214 158 296 166 463 8 181 -18 299 -98 459 -60 119 -101 167 -300 359 -111 107 -248 240 -304 295 -55 55 -120 115 -143 133 l-43 34 0 -161z m119 -498 c133 -37 243 -118 322 -239 33 -51 45 -83 60 -156 10 -51 18 -103 19 -116 l0 -22 -171 2 -172 3 -14 47 c-16 57 -72 108 -136 125 -93 25 -194 -33 -221 -127 l-13 -45 -188 -3 -188 -2 6 67 c15 177 133 355 280 421 160 73 274 85 416 45z m-441 -638 c100 -42 136 -140 96 -259 -25 -72 -67 -96 -168 -96 -69 0 -83 3 -113 26 -65 50 -95 164 -59 232 48 92 154 134 244 97z m760 0 c37 -16 57 -35 93 -90 42 -65 17 -182 -51 -239 -29 -23 -39 -26 -115 -26 -75 0 -87 3 -113 25 -43 36 -72 101 -72 161 0 42 6 59 35 100 55 78 139 103 223 69z"/>
 <path d="M2595 1985 c-5 -2 -35 -11 -67 -20 -76 -21 -137 -76 -172 -154 l-27 -61 3 -312 c3 -301 4 -315 25 -354 28 -52 83 -100 159 -139 59 -30 59 -30 261 -33 184 -3 208 -2 265 17 69 23 96 39 152 89 30 26 42 48 60 108 l22 74 13 -62 c11 -55 19 -69 64 -113 29 -28 79 -64 112 -80 l60 -30 220 0 c209 0 223 1 279 24 40 16 79 42 117 80 48 48 58 63 63 104 4 26 11 47 15 47 4 0 13 -21 20 -47 16 -61 98 -143 179 -181 54 -25 67 -26 255 -30 179 -3 204 -2 267 17 116 35 220 135 220 209 0 43 12 33 30 -26 18 -57 87 -124 170 -165 l65 -32 197 -3 c179 -3 205 -2 266 17 115 36 201 115 227 208 10 37 13 42 14 20 2 -74 73 -156 181 -210 l65 -32 220 0 220 0 66 31 c36 17 86 51 111 76 75 73 80 101 76 455 l-3 298 -31 55 c-37 65 -81 103 -155 132 -47 19 -79 22 -254 25 -229 5 -310 -8 -390 -65 -50 -35 -104 -121 -106 -167 l0 -30 -11 25 c-41 98 -57 126 -94 159 -70 61 -130 75 -356 79 -175 3 -205 1 -269 -17 -40 -11 -90 -32 -111 -46 -44 -29 -93 -100 -110 -160 l-12 -40 -6 40 c-15 99 -91 172 -208 204 -66 18 -107 21 -258 21 -315 0 -395 -42 -470 -245 l-7 -20 -4 20 c-25 118 -78 181 -181 217 -62 21 -84 23 -282 23 -183 0 -224 -3 -274 -19 -103 -32 -194 -145 -197 -245 l-1 -26 -7 25 c-5 14 -16 50 -24 80 -22 73 -80 131 -162 162 -54 19 -82 22 -270 24 -115 2 -214 1 -220 -1z m124 -415 c28 -45 51 -83 51 -86 0 -3 15 -28 34 -56 l34 -50 29 41 c15 22 47 67 71 98 23 32 50 75 59 96 12 27 21 36 33 31 8 -3 27 -11 43 -16 15 -5 27 -14 27 -19 0 -6 -17 -35 -37 -66 -21 -32 -49 -77 -63 -102 -14 -26 -37 -66 -52 -92 l-27 -45 24 -30 c12 -16 40 -61 60 -99 21 -39 51 -89 66 -113 16 -24 29 -47 29 -52 0 -9 -54 -30 -77 -30 -7 0 -17 8 -21 18 -4 9 -32 55 -63 102 -31 47 -64 100 -75 118 -10 17 -21 32 -24 32 -7 0 -70 -105 -70 -117 0 -12 -89 -146 -103 -155 -12 -7 -87 28 -87 41 0 5 6 14 14 20 8 7 44 61 81 121 36 60 71 112 76 115 25 16 -8 90 -96 215 -17 25 -42 62 -54 83 l-23 37 44 20 c23 11 44 20 44 20 1 0 25 -36 53 -80z m851 -210 l0 -290 75 0 75 0 2 173 3 172 48 3 47 3 0 -175 0 -176 75 0 75 0 2 288 3 287 48 3 47 3 0 -309 0 -309 -24 -22 c-33 -31 -88 -42 -174 -35 -65 6 -75 9 -85 31 l-11 24 -22 -28 c-22 -27 -25 -28 -118 -28 -81 0 -99 3 -123 21 l-28 21 -3 317 -2 316 45 0 45 0 0 -290z m1898 -2 l2 -288 80 0 80 0 2 173 3 172 40 0 40 0 3 -172 2 -173 80 0 80 0 0 290 0 290 45 0 45 0 0 -307 -1 -308 -35 -27 c-64 -48 -210 -52 -247 -7 l-19 23 -18 -24 c-18 -24 -24 -25 -120 -25 l-102 1 -29 34 -28 35 -1 287 c0 157 3 294 6 303 5 12 17 15 48 13 l41 -3 3 -287z m-603 255 l47 -6 -6 -45 c-3 -25 -10 -48 -15 -51 -5 -4 -69 -4 -142 -1 -194 7 -183 13 -187 -103 l-3 -97 186 0 185 0 0 -133 0 -133 -29 -28 c-35 -34 -86 -45 -201 -45 -132 0 -179 11 -212 48 l-29 32 3 249 3 249 29 30 c16 16 40 32 55 34 45 7 266 7 316 0z m1900 0 l47 -6 -6 -41 c-4 -23 -11 -45 -16 -50 -4 -4 -80 -9 -167 -10 l-158 -1 -3 -97 -3 -98 186 0 185 0 0 -131 0 -131 -33 -33 c-31 -31 -39 -33 -121 -40 -48 -4 -124 -5 -169 -1 -74 6 -85 10 -114 38 l-33 32 0 248 0 247 30 35 c17 19 43 37 58 39 46 7 267 7 317 0z"/>
 <path d="M4560 1146 l0 -75 46 -7 c53 -8 210 -1 221 10 4 4 9 38 11 77 l4 69 -141 0 -141 0 0 -74z"/>
 <path d="M6460 1146 l0 -73 31 -7 c17 -3 64 -6 104 -6 40 0 87 3 104 6 l31 7 0 73 0 74 -135 0 -135 0 0 -74z"/>
 </g>

</svg>